<svg xmlns="http://www.w3.org/2000/svg" width="192" height="192" viewBox="0 0 192 192">
  <rect width="192" height="192" rx="40" fill="#f4f9fc"/>
  <circle cx="96" cy="101" r="70" fill="#ffffff"/>
  <path d="M99 65c5-20 16-32 34-40" fill="none" stroke="#6b4b26" stroke-width="13" stroke-linecap="round"/>
  <path d="M106 55c9-16 26-22 47-18-5 22-22 33-45 30" fill="#4b9f38"/>
  <path d="M96 76c-16-19-52-8-64 26-18 54 14 84 39 78 12-4 19-5 25-5s13 1 25 5c25 6 57-24 39-78-12-34-48-45-64-26z" fill="#d71920"/>
  <path d="M52 111c-6-23 8-40 24-45" fill="none" stroke="#ff8585" stroke-width="12" stroke-linecap="round" opacity=".72"/>
  <path d="M40 145c19 33 47 38 72 28 24 10 51 5 70-28" fill="none" stroke="#9f161b" stroke-width="9" stroke-linecap="round" opacity=".26"/>
</svg>
